<?xml version="1.0" standalone="no"?><!DOCTYPE svg PUBLIC "-//W3C//DTD SVG 1.1//EN" "http://www.w3.org/Graphics/SVG/1.1/DTD/svg11.dtd"><svg t="1616778413029" class="icon" viewBox="0 0 1024 1024" version="1.1" xmlns="http://www.w3.org/2000/svg" p-id="790" xmlns:xlink="http://www.w3.org/1999/xlink" width="200" height="200"><defs><style type="text/css"></style></defs><path d="M891.187 397.184c0 218.32-177.01 395.282-395.284 395.282-218.319 0-395.282-176.962-395.282-395.282 0-218.273 176.963-395.26 395.282-395.26 218.274 0 395.284 176.987 395.284 395.26z" fill="#E9EAEB" p-id="791"></path><path d="M505.12 597.944l324.786-179.136-9.193 363.875-324.81 179.089z" fill="#9EC7EB" p-id="792"></path><path d="M495.903 973.872c-2.173 0-4.348-0.591-6.286-1.76-3.71-2.246-5.908-6.312-5.813-10.647l9.216-363.827a12.097 12.097 0 0 1 6.263-10.292l324.786-179.137c3.781-2.103 8.413-1.985 12.124 0.26 3.71 2.245 5.908 6.31 5.813 10.646l-9.192 363.874a12.092 12.092 0 0 1-6.263 10.292l-324.81 179.09a12.046 12.046 0 0 1-5.838 1.501z m21.128-368.684l-8.508 335.798 300.278-165.548 8.485-335.846-300.255 165.596z" fill="#2D4978" p-id="793"></path><path d="M192.552 407.984l324.763-179.137 312.591 189.961L505.12 597.944z" fill="#FFFFFF" p-id="794"></path><path d="M505.12 610.044c-2.174 0-4.349-0.59-6.286-1.76L186.266 418.323a12.096 12.096 0 0 1-5.814-10.6 12.122 12.122 0 0 1 6.263-10.339l324.762-179.136c3.782-2.104 8.39-1.998 12.125 0.259l312.592 189.961a12.095 12.095 0 0 1 5.813 10.599 12.12 12.12 0 0 1-6.262 10.34L510.958 608.544a12.062 12.062 0 0 1-5.838 1.5zM216.682 408.492l288.723 175.474L805.777 418.3 517.031 242.826 216.682 408.492z" fill="#2D4978" p-id="795"></path><path d="M505.12 597.944l-9.217 363.828-312.568-189.961 9.217-363.827z" fill="#9EC7EB" p-id="796"></path><path d="M495.903 973.872c-2.173 0-4.348-0.591-6.286-1.76L177.049 782.151c-3.71-2.246-5.908-6.31-5.813-10.647l9.217-363.827a12.104 12.104 0 0 1 6.31-10.316 12.202 12.202 0 0 1 12.077 0.284l312.567 189.961c3.711 2.245 5.909 6.31 5.813 10.646l-9.217 363.827a12.106 12.106 0 0 1-12.1 11.793z m-300.302-208.76l288.746 175.474 8.508-335.941-288.746-175.474-8.508 335.941z" fill="#2D4978" p-id="797"></path><path d="M677.546 724.972L505.12 600.946l320.651-187.55 178.475 117.975z" fill="#FFFFFF" p-id="798"></path><path d="M677.546 737.071c-2.482 0-4.963-0.768-7.066-2.28L498.054 610.766a12.011 12.011 0 0 1-5.01-10.387 12.082 12.082 0 0 1 5.979-9.879l320.651-187.55c3.946-2.34 8.933-2.198 12.761 0.354l178.476 117.975a12.131 12.131 0 0 1 5.436 10.388 12.071 12.071 0 0 1-5.932 10.114l-326.7 193.602a12.076 12.076 0 0 1-6.169 1.688zM527.287 601.998l150.896 108.533 303.28-179.716-156.095-103.169-298.081 174.352z" fill="#2D4978" p-id="799"></path><path d="M184.517 418.808L12.092 294.783l320.65-187.551 178.475 117.976z" fill="#FFFFFF" p-id="800"></path><path d="M184.517 430.908c-2.481 0-4.963-0.769-7.066-2.281L5.026 304.602a12.01 12.01 0 0 1-5.01-10.386 12.08 12.08 0 0 1 5.979-9.879l320.651-187.55c3.922-2.34 8.933-2.187 12.762 0.354l178.476 117.975a12.13 12.13 0 0 1 5.435 10.387 12.074 12.074 0 0 1-5.931 10.115l-326.701 193.6a12.072 12.072 0 0 1-6.17 1.69zM34.259 295.834l150.896 108.534 303.28-179.716-156.094-103.169L34.259 295.834z" fill="#2D4978" p-id="801"></path><path d="M190.094 413.396l308.551 189.559-163.351 114.951L24.712 529.93z" fill="#FFFFFF" p-id="802"></path><path d="M335.294 730.006c-2.174 0-4.325-0.579-6.262-1.75L18.449 540.28a12.099 12.099 0 0 1-5.837-9.926 12.116 12.116 0 0 1 5.128-10.315l165.383-116.534a12.08 12.08 0 0 1 13.305-0.425l308.55 189.559a12.155 12.155 0 0 1 5.767 9.938 12.11 12.11 0 0 1-5.129 10.268l-163.35 114.95a12.122 12.122 0 0 1-6.972 2.211zM46.809 529.161l287.99 174.306 141.844-99.827-286.1-175.757L46.809 529.161z" fill="#2D4978" p-id="803"></path><path d="M683.123 107.232l308.55 189.56-163.351 114.95L517.74 223.766z" fill="#FFFFFF" p-id="804"></path><path d="M828.322 423.842a12.06 12.06 0 0 1-6.262-1.749L511.477 234.117a12.1 12.1 0 0 1-5.837-9.926 12.115 12.115 0 0 1 5.129-10.316L676.151 97.342c3.97-2.801 9.241-2.954 13.305-0.426l308.551 189.559a12.156 12.156 0 0 1 5.767 9.938 12.111 12.111 0 0 1-5.128 10.269l-163.351 114.95a12.139 12.139 0 0 1-6.973 2.21zM539.837 222.998l287.989 174.304 141.845-99.825-286.1-175.757-143.734 101.278z" fill="#2D4978" p-id="805"></path><path d="M408.887 67.482H580.32v248.05h92.735L495.62 513.15 324.188 317.541h84.699z" fill="#9EC7EB" p-id="806"></path><path d="M495.62 525.25h-0.071a12.077 12.077 0 0 1-9.028-4.124L315.088 325.517c-3.143-3.569-3.876-8.649-1.914-12.974a12.088 12.088 0 0 1 11.013-7.102h72.6V67.482c0-6.688 5.412-12.1 12.1-12.1H580.32c6.688 0 12.1 5.412 12.1 12.1v235.95h80.635c4.775 0 9.1 2.813 11.061 7.172a12.111 12.111 0 0 1-2.057 13.01L504.624 521.232a12.124 12.124 0 0 1-9.004 4.018zM350.892 329.641l144.846 165.277 150.187-167.285H580.32c-6.688 0-12.101-5.412-12.101-12.1V79.582H420.987v237.959c0 6.688-5.412 12.1-12.1 12.1h-57.995z" fill="#2D4978" p-id="807"></path></svg>